<svg width="111" height="27" viewBox="0 0 111 27" fill="none" xmlns="http://www.w3.org/2000/svg">
<path d="M11.1094 26L2.88281 3.78125L0.597656 3.5V0.40625H10.7754V3.5L8.47266 3.85156L13.5 18.9512L13.8867 20.3574H13.9922L14.3613 18.9863L19.3887 3.85156L16.6992 3.5V0.40625H26.4023V3.5L24.082 3.78125L16.3652 26H11.1094ZM35.6836 26.3691C33.6797 26.3691 32.1035 25.7363 30.9551 24.4707C29.8184 23.1934 29.25 21.2129 29.25 18.5293V10.6016L27.1582 10.0742V6.98047H29.25H34.3828V18.5645C34.3828 19.9238 34.6172 20.9023 35.0859 21.5C35.5664 22.0859 36.2871 22.3789 37.248 22.3789C38.0098 22.3789 38.6836 22.2324 39.2695 21.9395C39.8555 21.6348 40.3359 21.207 40.7109 20.6562V10.6016L38.4434 10.0742V6.98047H40.7109H45.8438V22.3965L48.1289 22.9238V26H41.3438L40.9922 23.5918C40.3945 24.4824 39.6445 25.168 38.7422 25.6484C37.8398 26.1289 36.8203 26.3691 35.6836 26.3691Z" fill="white"/>
<path d="M61.8223 26.3691C59.2793 26.3691 57.1113 25.8418 55.3184 24.7871C53.5254 23.7324 52.1484 22.2676 51.1875 20.3926C50.2383 18.5176 49.7637 16.3438 49.7637 13.8711V12.9922C49.7637 10.4375 50.2383 8.1875 51.1875 6.24219C52.1367 4.29687 53.4785 2.7793 55.2129 1.68945C56.959 0.587891 59.0215 0.0371094 61.4004 0.0371094C63.2402 0.0371094 64.9688 0.289062 66.5859 0.792969C68.2031 1.29688 69.6094 2.05273 70.8047 3.06055V8.73828H67.0078L66.2871 5.31055C65.8301 4.91211 65.2148 4.5957 64.4414 4.36133C63.668 4.11523 62.7832 3.99219 61.7871 3.99219C60.3574 3.99219 59.1211 4.37305 58.0781 5.13477C57.0469 5.88477 56.2559 6.93359 55.7051 8.28125C55.1543 9.61719 54.8789 11.1758 54.8789 12.957V13.8711C54.8789 15.6055 55.1484 17.1172 55.6875 18.4062C56.2383 19.6836 57.041 20.6738 58.0957 21.377C59.1504 22.0801 60.4453 22.4316 61.9805 22.4316C62.8828 22.4316 63.709 22.3496 64.459 22.1855C65.2207 22.0098 65.8477 21.7988 66.3398 21.5527V17.2109L62.6836 16.9297V13.3262H71.4902V23.6797C70.3535 24.4883 68.9824 25.1387 67.377 25.6309C65.7832 26.123 63.9316 26.3691 61.8223 26.3691ZM74.584 26V22.9238L77.0449 22.3965V10.6016L74.3203 10.0742V6.98047H81.8262L82.0195 9.33594L82.0547 9.75781C82.5234 8.72656 83.1035 7.94727 83.7949 7.41992C84.4863 6.89258 85.3125 6.62891 86.2734 6.62891C86.5781 6.62891 86.9121 6.6582 87.2754 6.7168C87.6387 6.76367 87.9609 6.82812 88.2422 6.91016L87.6973 11.6387L85.1484 11.498C84.4219 11.4629 83.8301 11.5859 83.373 11.8672C82.9277 12.1484 82.5293 12.5527 82.1777 13.0801V22.3965L84.6387 22.9238V26H74.584ZM97.8398 26.3691C95.8359 26.3691 94.2598 25.7363 93.1113 24.4707C91.9746 23.1934 91.4062 21.2129 91.4062 18.5293V10.6016L89.3145 10.0742V6.98047H91.4062H96.5391V18.5645C96.5391 19.9238 96.7734 20.9023 97.2422 21.5C97.7227 22.0859 98.4434 22.3789 99.4043 22.3789C100.166 22.3789 100.84 22.2324 101.426 21.9395C102.012 21.6348 102.492 21.207 102.867 20.6562V10.6016L100.6 10.0742V6.98047H102.867H108V22.3965L110.285 22.9238V26H103.5L103.148 23.5918C102.551 24.4824 101.801 25.168 100.898 25.6484C99.9961 26.1289 98.9766 26.3691 97.8398 26.3691Z" fill="#41B5FF"/>
</svg>
